<?xml version="1.0" standalone="no"?>
<!DOCTYPE svg PUBLIC "-//W3C//DTD SVG 20010904//EN"
 "http://www.w3.org/TR/2001/REC-SVG-20010904/DTD/svg10.dtd">
<svg version="1.0" xmlns="http://www.w3.org/2000/svg"
 width="200.000000pt" height="200.000000pt" viewBox="0 0 200.000000 200.000000"
 preserveAspectRatio="xMidYMid meet">
<metadata>
Created by potrace 1.14, written by Peter Selinger 2001-2017
</metadata>
<g transform="translate(0.000000,200.000000) scale(0.100000,-0.100000)"
fill="#000000" stroke="none">
<path d="M283 1976 c-103 -33 -204 -122 -251 -224 l-27 -57 0 -690 c0 -639 1
-694 18 -742 25 -73 87 -154 149 -196 102 -70 65 -67 840 -67 l700 0 62 30
c77 36 157 118 194 197 l27 58 0 705 0 705 -32 65 c-41 83 -110 152 -193 193
l-65 32 -690 2 c-551 2 -698 -1 -732 -11z m729 -363 c-10 -27 -119 -310 -242
-630 l-223 -583 -38 0 -38 0 22 58 c12 32 121 316 242 630 l220 572 37 0 38 0
-18 -47z m470 0 c-10 -27 -119 -310 -242 -630 l-224 -583 -38 0 -38 0 13 32
c7 18 117 302 243 630 l229 598 37 0 38 0 -18 -47z"/>
</g>
</svg>
